<svg width="32" height="32" viewBox="0 0 32 32" fill="none" xmlns="http://www.w3.org/2000/svg">
  <!-- Background circle with gradient -->
  <circle cx="16" cy="16" r="16" fill="url(#gradient)"/>
  
  <!-- Musical note -->
  <path d="M12 7V20C12 21.1046 11.1046 22 10 22C8.89543 22 8 21.1046 8 20C8 18.8954 8.89543 18 10 18C10.5523 18 11.0521 18.2239 11.4142 18.5858L12 18V12L20 10V17C20 18.1046 19.1046 19 18 19C16.8954 19 16 18.1046 16 17C16 15.8954 16.8954 15 18 15C18.5523 15 19.0521 15.2239 19.4142 15.5858L20 15V8L12 7Z" fill="white"/>
  
  <!-- Define gradient -->
  <defs>
    <linearGradient id="gradient" x1="0%" y1="0%" x2="100%" y2="100%">
      <stop offset="0%" style="stop-color:#4361EE;stop-opacity:1" />
      <stop offset="100%" style="stop-color:#7209B7;stop-opacity:1" />
    </linearGradient>
  </defs>
</svg> 